<svg xmlns="http://www.w3.org/2000/svg" viewBox="10750 9553 192 48.217">
  <defs>
    <style>
      .cls-1 {
        fill: #f2944a;
      }

      .cls-2 {
        fill: #ec6b34;
      }

      .cls-3 {
        fill: #fac47f;
      }

      .cls-4 {
        fill: #0376bb;
      }

      .cls-5 {
        fill: #8bd1ec;
      }

      .cls-6 {
        fill: #40b5e7;
      }

      .cls-7 {
        fill: #616163;
      }
    </style>
  </defs>
  <g id="zenta-logotipo-c" transform="translate(10750 9553)">
    <path id="Path_1" data-name="Path 1" class="cls-1" d="M30.824,20.5c-.649.175-1.3.349-1.922.574a64.848,64.848,0,0,0-.7,35.19c.225-.275.474-.524.7-.824C33.47,50.074,39.26,41.963,40.133,40.765A55.578,55.578,0,0,1,30.824,20.5Z" transform="translate(-19.593 -15.384)"/>
    <path id="Path_2" data-name="Path 2" class="cls-2" d="M61.671,14.1c-3.769,0-10.607,0-16.671,1.572a55.2,55.2,0,0,0,9.309,20.24,1.142,1.142,0,0,0,.1-.15l4.542-6.139,7.113-9.633a7.031,7.031,0,0,0,.774-2.82C66.813,15.8,66.214,14.1,61.671,14.1Z" transform="translate(-33.769 -10.581)"/>
    <path id="Path_3" data-name="Path 3" class="cls-3" d="M9.284,22.7c-.624.2-1.223.424-1.822.674C.749,26.194,0,28.54,0,32.333V56.891s0,4.942,4.043,4.942c.8,0,2.5-1.622,4.542-3.943C6.139,48.78,5.216,36.851,9.284,22.7Z" transform="translate(0 -17.035)"/>
    <path id="Path_4" data-name="Path 4" class="cls-4" d="M186.24,14.1c-.873,0-2.9,2.022-5.241,4.742-.275.3-.524.624-.8.948.3,1.048.549,2.121.8,3.219a70.106,70.106,0,0,1,1.672,15.374,71.531,71.531,0,0,1-1.547,14.8c.574-.2,1.148-.4,1.7-.624,6.713-2.82,7.462-5.166,7.462-8.935V19.066S190.283,14.1,186.24,14.1Z" transform="translate(-135.227 -10.581)"/>
    <path id="Path_5" data-name="Path 5" class="cls-5" d="M89.074,137.889a5.713,5.713,0,0,0-.774,2.82c0,1.373.6,3.07,5.166,3.07,3.769,0,10.607,0,16.671-1.572A50.435,50.435,0,0,1,93.516,131.9C93.516,131.875,89.473,137.191,89.074,137.889Z" transform="translate(-66.263 -98.981)"/>
    <path id="Path_6" data-name="Path 6" class="cls-6" d="M127.643,40.119c-.25-1.073-.5-2.146-.8-3.219-4.817,5.79-10.532,13.876-10.532,13.876l-4.542,6.139-2.67,3.619a50.435,50.435,0,0,0,16.621,10.307c.649-.175,1.3-.349,1.922-.574.05-.025.075-.025.125-.05a71.532,71.532,0,0,0,1.547-14.8A69.926,69.926,0,0,0,127.643,40.119Z" transform="translate(-81.872 -27.691)"/>
    <g id="Group_1" data-name="Group 1" transform="translate(68.532)">
      <path id="Path_7" data-name="Path 7" class="cls-7" d="M294.965,48.282H274.6v-2.6L289.974,26.22h-14.65V23.3h19.142v2.87L279.392,45.362h15.573Z" transform="translate(-274.6 -17.485)"/>
      <path id="Path_8" data-name="Path 8" class="cls-7" d="M384.527,47.056c-4.193,0-7.487-1.123-9.908-3.369S371,38.321,371,34.327q0-6.027,3.369-9.584A11.861,11.861,0,0,1,383.4,21.2a11.43,11.43,0,0,1,8.411,3.07,10.929,10.929,0,0,1,3.095,8.136v2.4H375.417a9.126,9.126,0,0,0,2.521,6.664,9.349,9.349,0,0,0,6.713,2.271,25.377,25.377,0,0,0,9.034-1.672v3.369a25.351,25.351,0,0,1-4.293,1.248A26.784,26.784,0,0,1,384.527,47.056ZM383.5,24.295a7.4,7.4,0,0,0-5.391,1.947,8.52,8.52,0,0,0-2.371,5.416h14.7a7.676,7.676,0,0,0-1.8-5.466A6.857,6.857,0,0,0,383.5,24.295Z" transform="translate(-346.941 -15.909)"/>
      <path id="Path_9" data-name="Path 9" class="cls-7" d="M511.267,46.781V30.534a6.014,6.014,0,0,0-1.547-4.492c-1.023-1-2.645-1.472-4.842-1.472-2.895,0-5.041.7-6.389,2.1s-2.022,3.694-2.022,6.888V46.806H492.1V21.8h3.469l.7,3.394h-.225a8.7,8.7,0,0,1,3.769-2.87A13.925,13.925,0,0,1,505.2,21.3c3.469,0,6.09.724,7.836,2.171s2.621,3.769,2.621,6.963v16.3h-4.392Z" transform="translate(-437.818 -15.984)"/>
      <path id="Path_10" data-name="Path 10" class="cls-7" d="M614.678,28.052a14.988,14.988,0,0,0,2.146-.15q1.048-.15,1.647-.3v2.8a8.076,8.076,0,0,1-2,.474,17.167,17.167,0,0,1-2.371.2q-7.974,0-7.986-7.462V8.735H602V5.815h3.993L606.717,0h3.519V5.815h8.236v2.92h-8.236V23.41a4.763,4.763,0,0,0,1.2,3.469A4.418,4.418,0,0,0,614.678,28.052Z" transform="translate(-520.29)"/>
      <path id="Path_11" data-name="Path 11" class="cls-7" d="M698.717,45.355l-.849-3.644h-.2a11.306,11.306,0,0,1-4.168,3.244,13.56,13.56,0,0,1-5.166.849,9.823,9.823,0,0,1-6.489-1.947,6.821,6.821,0,0,1-2.346-5.565q0-7.749,13.5-8.111l4.742-.15v-1.6a6.089,6.089,0,0,0-1.423-4.442A6.166,6.166,0,0,0,691.8,22.57a19.877,19.877,0,0,0-7.886,1.947l-1.3-2.945a21.824,21.824,0,0,1,9.434-2.171c3.319,0,5.79.674,7.387,2.022s2.4,3.519,2.4,6.514V45.38h-3.12Zm-9.758-2.77a9.373,9.373,0,0,0,6.239-1.922,6.713,6.713,0,0,0,2.271-5.416V33l-4.268.15c-3.394.1-5.815.574-7.312,1.4a4.11,4.11,0,0,0-2.246,3.843,3.716,3.716,0,0,0,1.4,3.12A6.3,6.3,0,0,0,688.959,42.585Z" transform="translate(-578.448 -14.558)"/>
    </g>
    <g id="Group_2" data-name="Group 2" transform="translate(68.607 35.077)">
      <path id="Path_12" data-name="Path 12" class="cls-7" d="M274.9,141.723V140.7h7.337v1.023h-3.12v8.086h-1.123v-8.086Z" transform="translate(-274.9 -140.663)"/>
      <path id="Path_13" data-name="Path 13" class="cls-7" d="M306.664,156.516a3.692,3.692,0,0,1-2.77,1.148,3.332,3.332,0,1,1-.075-6.664c1.972,0,3.469,1.2,3.219,3.769h-5.466a2.187,2.187,0,0,0,2.321,1.922,2.8,2.8,0,0,0,2.046-.8l.724.624Zm-.624-2.67a1.933,1.933,0,0,0-2.171-1.922,2.178,2.178,0,0,0-2.271,1.922Z" transform="translate(-294.111 -148.392)"/>
      <path id="Path_14" data-name="Path 14" class="cls-7" d="M336.04,156.74a3.245,3.245,0,0,1-2.4,1,3.319,3.319,0,1,1,2.321-5.665l-.674.7a2.282,2.282,0,0,0-1.622-.649,2.321,2.321,0,0,0,0,4.642,2.278,2.278,0,0,0,1.672-.674l.7.649Z" transform="translate(-316.474 -148.467)"/>
      <path id="Path_15" data-name="Path 15" class="cls-7" d="M357.9,151.1h.973l.05,1.023a2.611,2.611,0,0,1,2.2-1.123,2.727,2.727,0,0,1,2.82,2.97v3.544h-1.073v-3.519a1.811,1.811,0,0,0-1.947-2,2,2,0,0,0-1.972,2.1v3.444H357.9V151.1Z" transform="translate(-337.186 -148.392)"/>
      <path id="Path_16" data-name="Path 16" class="cls-7" d="M390.518,150.9a3.344,3.344,0,1,1-3.319,3.369A3.2,3.2,0,0,1,390.518,150.9Zm0,.973a2.359,2.359,0,1,0,2.3,2.4A2.27,2.27,0,0,0,390.518,151.873Z" transform="translate(-359.172 -148.317)"/>
      <path id="Path_17" data-name="Path 17" class="cls-7" d="M420.573,149.809H419.5V140.7h1.073Z" transform="translate(-383.412 -140.663)"/>
      <path id="Path_18" data-name="Path 18" class="cls-7" d="M432.719,150.9a3.344,3.344,0,1,1-3.319,3.369A3.2,3.2,0,0,1,432.719,150.9Zm.025.973a2.359,2.359,0,1,0,2.3,2.4A2.27,2.27,0,0,0,432.744,151.873Z" transform="translate(-390.841 -148.317)"/>
      <path id="Path_19" data-name="Path 19" class="cls-7" d="M463.269,159.183c1.1,0,2.271-.4,2.271-1.522,0-1.048-1.048-1.547-2.246-1.547a3.064,3.064,0,0,1-3.394-3.17,3.207,3.207,0,0,1,3.394-3.195,3.547,3.547,0,0,1,1.822.474l.7-.824.749.6-.724.849a2.9,2.9,0,0,1,.824,2.071,2.628,2.628,0,0,1-1.8,2.62,2.15,2.15,0,0,1,1.772,2.1c0,1.672-1.647,2.521-3.344,2.521-1.947,0-3.319-1.023-3.294-2.745h1.023C461,158.659,462.1,159.183,463.269,159.183Zm.025-3.993a2.219,2.219,0,0,0,2.321-2.221,2.171,2.171,0,0,0-2.321-2.221,2.2,2.2,0,0,0-2.346,2.221A2.18,2.18,0,0,0,463.294,155.19Z" transform="translate(-413.729 -147.191)"/>
      <path id="Path_20" data-name="Path 20" class="cls-7" d="M493.049,140.7H494.2v.05l-.9,1.7h-.9v-.075Zm.474,2.77h-1.1v6.339h1.1Z" transform="translate(-438.118 -140.663)"/>
      <path id="Path_21" data-name="Path 21" class="cls-7" d="M507.89,157.564l-.025-1.173a2.721,2.721,0,0,1-2.371,1.3,3.345,3.345,0,0,1,0-6.689,2.661,2.661,0,0,1,2.371,1.273l.025-1.173h1.048v6.414h-1.023Zm-2.346-5.54a2.347,2.347,0,0,0,0,4.692c3.12,0,3.12-4.717,0-4.692Z" transform="translate(-445.472 -148.392)"/>
      <path id="Path_22" data-name="Path 22" class="cls-7" d="M551.012,148.087h-4.767l-.774,1.722H543.6l4.093-9.109h1.872l4.093,9.109h-1.872Zm-2.4-5.466-1.7,3.868h3.394Z" transform="translate(-476.54 -140.663)"/>
      <path id="Path_23" data-name="Path 23" class="cls-7" d="M589.293,157.614V154.17c0-.849-.449-1.622-1.323-1.622a1.482,1.482,0,0,0-1.373,1.622v3.444H585V151.2h1.473l.125.774a1.859,1.859,0,0,1,1.7-.873,1.917,1.917,0,0,1,1.9,1.2,2.358,2.358,0,0,1,2.146-1.173c1.822,0,2.72,1.123,2.72,3.045v3.469h-1.572V154.17c0-.849-.349-1.572-1.2-1.572a1.478,1.478,0,0,0-1.4,1.6v3.444h-1.6Z" transform="translate(-507.608 -148.467)"/>
      <path id="Path_24" data-name="Path 24" class="cls-7" d="M632.272,141.486a.936.936,0,0,1-1.872,0A.936.936,0,0,1,632.272,141.486Zm-1.722,1.772V149.7h1.6v-6.439Z" transform="translate(-541.677 -140.55)"/>
      <path id="Path_25" data-name="Path 25" class="cls-7" d="M646.266,148.9l1.173.874-.724.9a2.692,2.692,0,0,1,.674,1.9,2.541,2.541,0,0,1-1.348,2.4,2.135,2.135,0,0,1,1.323,2.121c0,1.772-1.348,2.87-3.219,2.87s-3.244-1.123-3.244-2.87h1.572a1.516,1.516,0,0,0,1.672,1.373,1.439,1.439,0,0,0,1.622-1.373c0-.874-.824-1.3-1.622-1.3a3,3,0,0,1-3.244-3.219,3.118,3.118,0,0,1,3.244-3.244,2.6,2.6,0,0,1,1.472.374Zm-3.794,3.694a1.639,1.639,0,0,0,1.672,1.772,1.788,1.788,0,1,0-1.672-1.772Z" transform="translate(-549.557 -146.816)"/>
      <path id="Path_26" data-name="Path 26" class="cls-7" d="M674.216,150.973h1.522v6.414h-1.5l-.075-.948a2.428,2.428,0,0,1-2.071,1.123,3.382,3.382,0,0,1,.05-6.763,2.366,2.366,0,0,1,2.046,1.048Zm-3.843,3.195a1.834,1.834,0,0,0,1.9,1.947c2.5,0,2.5-3.893,0-3.893A1.848,1.848,0,0,0,670.372,154.168Z" transform="translate(-570.494 -148.241)"/>
      <path id="Path_27" data-name="Path 27" class="cls-7" d="M702.272,140.725v3.544a2.6,2.6,0,0,1,2.1-1.023,3.073,3.073,0,0,1,3.269,3.344,3.143,3.143,0,0,1-3.294,3.344,2.334,2.334,0,0,1-2.071-1.023l-.1.874H700.7V140.7h1.572Zm.1,5.865a1.829,1.829,0,0,0,1.872,1.9,1.8,1.8,0,0,0,1.822-1.9,1.769,1.769,0,0,0-1.822-1.872A1.838,1.838,0,0,0,702.372,146.59Z" transform="translate(-594.432 -140.663)"/>
      <path id="Path_28" data-name="Path 28" class="cls-7" d="M733.972,140.8v9.084H732.4V140.8Z" transform="translate(-618.221 -140.738)"/>
      <path id="Path_29" data-name="Path 29" class="cls-7" d="M744.1,154.743c.1.8.8,1.373,1.922,1.373a2.72,2.72,0,0,0,1.722-.6l1.023,1a3.931,3.931,0,0,1-2.745,1.048,3.383,3.383,0,1,1-.1-6.763c2.146,0,3.494,1.323,3.244,3.968H744.1Zm3.469-1.323c-.1-.824-.749-1.248-1.672-1.248a1.739,1.739,0,0,0-1.8,1.248Z" transform="translate(-625.8 -148.242)"/>
    </g>
  </g>
</svg>
