<svg id="Layer_1" data-name="Layer 1" xmlns="http://www.w3.org/2000/svg" xmlns:xlink="http://www.w3.org/1999/xlink" viewBox="0 0 1600 401"><defs><style>.cls-1{fill:url(#radial-gradient);}.cls-2{fill:none;}.cls-3{fill:#5c4ee5;}.cls-4{fill:#4040b2;}.cls-5{clip-path:url(#clip-path);}.cls-6{fill:#f8bb16;}.cls-7{fill:#ea4334;}.cls-8{fill:#0074bc;}.cls-9{fill:#e2e3e4;}.cls-10{fill:#fff;}.cls-11{clip-path:url(#clip-path-2);}.cls-12{opacity:0.2;}.cls-13{clip-path:url(#clip-path-3);}.cls-14{fill:#2c3079;}.cls-15{clip-path:url(#clip-path-4);}.cls-16{clip-path:url(#clip-path-5);}.cls-17{fill:#be3b26;}.cls-18{clip-path:url(#clip-path-6);}.cls-19{fill:#3f2723;}.cls-20{clip-path:url(#clip-path-8);}.cls-21{mask:url(#mask);}.cls-22{fill:url(#radial-gradient-2);}.cls-23{clip-path:url(#clip-path-9);}.cls-24{fill:#767576;}.cls-25{clip-path:url(#clip-path-10);}.cls-26{fill:#b3b3b3;stroke:#999;stroke-miterlimit:10;}</style><radialGradient id="radial-gradient" cx="1.9" cy="649.47" r="0.33" gradientTransform="matrix(553.65, 0, 0, -553.65, 6.44, 359835.03)" gradientUnits="userSpaceOnUse"><stop offset="0" stop-color="#fff" stop-opacity="0.1"/><stop offset="1" stop-color="#fff" stop-opacity="0"/></radialGradient><clipPath id="clip-path"><rect class="cls-2" x="870.45" width="664.54" height="410.58"/></clipPath><clipPath id="clip-path-2"><rect class="cls-2" x="1105.29" y="56.86" width="182.81" height="64.52"/></clipPath><clipPath id="clip-path-3"><rect class="cls-2" x="1129.58" y="97.97" width="158.52" height="64.97"/></clipPath><clipPath id="clip-path-4"><rect class="cls-2" x="1083.53" y="120.72" width="155.94" height="107.19"/></clipPath><clipPath id="clip-path-5"><rect class="cls-2" x="1083.53" y="162.28" width="132.29" height="106.74"/></clipPath><clipPath id="clip-path-6"><rect class="cls-2" x="1215.06" y="99.3" width="107.1" height="169.73"/></clipPath><clipPath id="clip-path-8"><path class="cls-2" d="M1151.13,56.86a15.91,15.91,0,0,0-13.8,8h0L1085.61,155a15.92,15.92,0,0,0,0,15.83h0L1137.33,261a15.92,15.92,0,0,0,13.8,8h103.43a15.92,15.92,0,0,0,13.8-8h0l51.71-90.17a15.87,15.87,0,0,0,0-15.83h0l-32-55.73-19.74-34.44a15.91,15.91,0,0,0-13.8-8H1151.13Z"/></clipPath><mask id="mask" x="-10002.86" y="-10873.31" width="21746.29" height="21746.29" maskUnits="userSpaceOnUse"><g id="mask166"><g id="g176"><g id="g174"><g id="g172"><g id="g170"><path id="path168" class="cls-1" d="M-10002.86,10873H11743.43V-10873.31H-10002.86Z"/></g></g></g></g></g></mask><radialGradient id="radial-gradient-2" cx="1.5" cy="649.15" r="0.33" gradientTransform="translate(8.25 -479128.34) scale(738.2)" gradientUnits="userSpaceOnUse"><stop offset="0" stop-color="#fff"/><stop offset="1" stop-color="#fff"/></radialGradient><clipPath id="clip-path-9"><rect class="cls-2" x="927.08" y="290.24" width="551.28" height="84.95"/></clipPath><clipPath id="clip-path-10"><rect class="cls-2" x="927.08" y="308.38" width="184.05" height="60.17"/></clipPath></defs><title>tf-gcp</title><g id="Layer_2" data-name="Layer 2"><g id="Logo"><path d="M235.2,291.89v-6.47h-5.86v6.44h-3.05V276.39h3.05v6.5h5.86v-6.5h3.06v15.5Zm14.07,0h-2.38l-.21-.82a6.58,6.58,0,0,1-3.48,1c-2.14,0-3-1.4-3-3.32s1-3.06,3.39-3.06h2.8V284.5c0-1.25-.36-1.67-2.22-1.67a16.8,16.8,0,0,0-3.24.33l-.37-2.14a15.73,15.73,0,0,1,4.09-.54c3.67,0,4.74,1.25,4.74,4Zm-3.05-4.21h-2c-1,0-1.22.24-1.22,1.1s.27,1.13,1.16,1.13a4.77,4.77,0,0,0,2.19-.58Zm9.16,4.45a13.8,13.8,0,0,1-4-.64l.4-2.13a14.05,14.05,0,0,0,3.48.49c1.28,0,1.49-.28,1.49-1.13s0-1-2-1.47c-2.84-.67-3.06-1.34-3.06-3.51s1-3.23,4.37-3.23a15.67,15.67,0,0,1,3.48.39l-.28,2.23a21.43,21.43,0,0,0-3.2-.33c-1.28,0-1.5.27-1.5,1s0,1,1.65,1.34c3.27.83,3.57,1.26,3.57,3.55s-.79,3.44-4.3,3.44Zm13.37-.24v-7.81c0-.61-.28-.89-.95-.89a8.41,8.41,0,0,0-3.05.95v7.75H261.7V276.17l3.05.43v4.94a10.55,10.55,0,0,1,4.27-1.06c1.93,0,2.63,1.31,2.63,3.29v8.12Zm5.37-12.76v-2.74h3.05v2.74Zm0,12.76v-11.2h3.05v11.2Zm5.25-11.08c0-2.81,1.71-4.42,5.68-4.42a18.57,18.57,0,0,1,4.33.51l-.33,2.51a24.7,24.7,0,0,0-3.91-.55c-2.08,0-2.75.7-2.75,2.32v5.89c0,1.62.67,2.32,2.75,2.32a24.45,24.45,0,0,0,3.91-.4l.33,2.5a18.06,18.06,0,0,1-4.33.52c-4,0-5.68-1.61-5.68-4.42Zm16.45,11.32c-4,0-5.07-2.1-5.07-4.39V285c0-2.29,1.07-4.39,5.07-4.39s5.07,2.1,5.07,4.39v2.84c0,2.2-1.07,4.3-5.07,4.3Zm0-9.15c-1.56,0-2.17.67-2.17,1.92V288c0,1.25.61,1.93,2.17,1.93S298,289.2,298,288V284.9c0-1.37-.61-2-2.17-2Zm13.28.18a21.7,21.7,0,0,0-3.05,1.62V292H303V280.69h2.66v1.22a13.4,13.4,0,0,1,3.05-1.47ZM320.91,288a3.45,3.45,0,0,1-3.85,3.94,17.46,17.46,0,0,1-3.05-.33v4.57l-3.05.43V280.69h2.32l.27.95a6.23,6.23,0,0,1,3.7-1.16c2.35,0,3.6,1.34,3.6,3.87Zm-7,1.26a14.09,14.09,0,0,0,2.6.3c1,0,1.46-.49,1.46-1.49v-3.79c0-.92-.37-1.43-1.43-1.43a4.2,4.2,0,0,0-2.6,1Z"/><path d="M244.09,315.27h-17.8V304.65h47.65v10.62h-17.8v53.11h-12Z"/><path d="M284.92,359.74a48.56,48.56,0,0,0,14.26-2.2l1.83,8.79a50,50,0,0,1-17.12,3.06c-14.65,0-19.72-6.81-19.72-18V339.2c0-9.86,4.39-18.31,19.32-18.31s18.31,8.7,18.31,18.74v9.95H275.86V352C275.86,357.54,277.84,359.74,284.92,359.74Zm-9.15-19.62H290.6v-2.29c0-4.4-1.34-7.45-7.08-7.45s-7.75,3.05-7.75,7.45Z"/><path d="M333,331.54a90.54,90.54,0,0,0-12.21,6.81v30H309V321.77h9.85l.77,5.16a52,52,0,0,1,12.21-6.1Z"/><path d="M361.47,331.54a91,91,0,0,0-12.2,6.81v30H337.45V321.77h9.86l.77,5.16a52.16,52.16,0,0,1,12.2-6.1Z"/><path d="M400.48,368.35h-9.55l-.86-3.05a25.49,25.49,0,0,1-13.85,4.12c-8.52,0-12.21-5.83-12.21-13.86,0-9.46,4.12-13.09,13.58-13.09h11.2v-4.89c0-5.16-1.43-7-8.88-7A65.13,65.13,0,0,0,367,332l-1.44-8.88a60.68,60.68,0,0,1,16-2.2c14.65,0,19,5.16,19,16.85Zm-11.66-17.61h-8.6c-3.82,0-4.89,1-4.89,4.58s1,4.7,4.7,4.7a18.29,18.29,0,0,0,8.79-2.38Z"/><path d="M436.38,311.15a34.21,34.21,0,0,0-6.69-.76c-4.58,0-5.25,2-5.25,5.55v5.83h11.85l-.68,9.16h-11.2v37.3H412.75V331.05h-7.48v-9.16h7.45v-6.62c0-9.67,4.49-14.44,14.84-14.44a37,37,0,0,1,10,1.35Z"/><path d="M459.15,369.33c-16,0-20.27-8.79-20.27-18.32V339.23c0-9.55,4.3-18.31,20.27-18.31s20.29,8.79,20.29,18.31V351C479.41,360.5,475.11,369.33,459.15,369.33Zm0-38.55c-6.11,0-8.61,2.77-8.61,8v12.55c0,5.25,2.38,8,8.61,8s8.6-2.78,8.6-8V338.8c0-5.28-2.41-8.05-8.6-8.05Z"/><path d="M509.45,331.54a90.54,90.54,0,0,0-12.21,6.81v30H485.46V321.77h9.86l.76,5.16a52,52,0,0,1,12.21-6.1Z"/><path d="M541.5,368.35V335.84c0-2.47-1-3.72-3.73-3.72a32.22,32.22,0,0,0-12.21,3.94v32.32H514V321.77h8.89l1.16,3.94a46.6,46.6,0,0,1,18.65-4.88,8.86,8.86,0,0,1,8.79,5,45.71,45.71,0,0,1,18.74-5c7.75,0,10.53,5.46,10.53,13.76v33.76H569.06V335.84c0-2.47-1-3.72-3.73-3.72a30.72,30.72,0,0,0-12.21,3.94v32.32Z"/><polygon class="cls-3" points="371.21 61.05 435.8 98.35 435.8 172.94 371.21 135.65 371.21 61.05"/><polygon class="cls-4" points="442.88 98.35 442.88 172.94 507.49 135.65 507.49 61.05 442.88 98.35"/><polygon class="cls-3" points="299.55 19.42 299.55 94.01 364.13 131.31 364.13 56.72 299.55 19.42"/><polygon class="cls-3" points="371.21 218.39 435.8 255.69 435.8 181.61 435.8 181.13 371.21 143.83 371.21 218.39"/></g></g><g class="cls-5"><g id="g20"><path id="path22" class="cls-6" d="M1239.47,226.59,1215.06,269h-63.93a15.92,15.92,0,0,1-13.8-8l-51.72-90.17a15.92,15.92,0,0,1,0-15.83l19.68-34.31,24.29,42.22,36.63,63.65Z"/></g><g id="g24"><path id="path26" class="cls-7" d="M1320.07,170.86,1268.36,261a15.92,15.92,0,0,1-13.8,8h-39.5l24.41-42.43,36.64-63.65L1239.47,99.3h48.63l32,55.73a15.87,15.87,0,0,1,0,15.83"/></g><g id="g28"><path id="path30" class="cls-8" d="M1288.1,99.3H1166.21l-36.63,63.64-24.29-42.22,32-55.86a15.9,15.9,0,0,1,13.8-8h103.43a15.9,15.9,0,0,1,13.8,8Z"/></g><g id="g32"><path id="path34" class="cls-9" d="M1239.47,99.3l36.62,63.64-36.62,63.65h-73.25l-36.64-63.65,36.63-63.64Z"/></g><g id="g36"><path id="path38" class="cls-10" d="M1202.84,131.12A31.83,31.83,0,1,1,1171,162.94a31.83,31.83,0,0,1,31.82-31.82"/></g><g id="g40"><g id="g54"><g class="cls-11"><g id="g52" class="cls-12"><g id="g50"><path id="path48" class="cls-10" d="M1137.33,66.19a15.91,15.91,0,0,1,13.8-8h103.43a15.91,15.91,0,0,1,13.8,8l19,33.11h.75l-19.74-34.44a15.9,15.9,0,0,0-13.8-8H1151.13a15.9,15.9,0,0,0-13.8,8l-32,55.86.39.67Z"/></g></g></g></g></g><g id="g56"><g id="g70"><g class="cls-13"><g id="g68" class="cls-12"><g id="g66"><path id="path64" class="cls-14" d="M1129.58,162.94l36.63-63.64H1288.1l-.75-1.33H1166.21l-36.63,63.65"/></g></g></g></g></g><g id="g72"><g id="g86"><g class="cls-15"><g id="g84" class="cls-12"><g id="g82"><path id="path80" class="cls-10" d="M1085.61,156.35l19.68-34.3,24.29,42.22,36.63,63.65h72.49l.77-1.33h-73.26l-36.63-63.65-24.29-42.22L1085.61,155a15.88,15.88,0,0,0-2.06,8.58,16,16,0,0,1,2.06-7.26"/></g></g></g></g></g><g id="g88"><g id="g102"><g class="cls-16"><g id="g100" class="cls-12"><g id="g98"><path id="path96" class="cls-17" d="M1215.83,267.7h-64.7a15.91,15.91,0,0,1-13.8-8l-51.72-90.17a15.92,15.92,0,0,1-2.06-7.25,15.88,15.88,0,0,0,2.06,8.58L1137.33,261a15.92,15.92,0,0,0,13.8,8h63.93Z"/></g></g></g></g></g><g id="g12"><g id="g104"><g id="g122"><g class="cls-18"><g id="g120" class="cls-12"><g id="g114"><path id="path112" class="cls-19" d="M1276.85,162.94,1240.24,99.3h-.77l36.64,63.64Z"/></g><g id="g118"><path id="path116" class="cls-19" d="M1320.07,169.53l-51.71,90.17a15.91,15.91,0,0,1-13.8,8h-38.73l-.77,1.32h39.5a15.92,15.92,0,0,0,13.8-8l51.71-90.17a15.8,15.8,0,0,0,2.07-8.58,15.81,15.81,0,0,1-2.07,7.25"/></g></g></g></g></g><g id="g14"><g id="g124"><g id="g142"><g class="cls-18"><g id="g140" class="cls-12"><g id="g134"><path id="path132" class="cls-10" d="M1288.1,100.62l32,55.73a15.89,15.89,0,0,1,2.07,7.26,15.8,15.8,0,0,0-2.07-8.58l-32-55.73h-48.63l.77,1.32"/></g><g id="g138"><path id="path136" class="cls-10" d="M1239.47,227.92l37.38-65h-.74l-36.64,63.65L1215.06,269h.76Z"/></g></g></g></g></g></g></g><g id="g144"><g class="cls-20"><g id="g146"><g id="g152"><g class="cls-21"><g id="g178"><g id="g180"><path id="path188" class="cls-22" d="M1151.13,56.86a15.91,15.91,0,0,0-13.8,8h0L1085.61,155a15.92,15.92,0,0,0,0,15.83h0L1137.33,261a15.92,15.92,0,0,0,13.8,8h103.43a15.92,15.92,0,0,0,13.8-8h0l51.71-90.17a15.87,15.87,0,0,0,0-15.83h0l-32-55.73-19.74-34.44a15.91,15.91,0,0,0-13.8-8H1151.13Z"/></g></g></g></g></g></g></g><g id="g10"><g class="cls-23"><g id="g190"><g id="g198"><path id="path200" class="cls-24" d="M1123.8,333.67a20.71,20.71,0,0,1,21.07-21.18,19.18,19.18,0,0,1,14.89,6.63l-3.62,3.51a13.71,13.71,0,0,0-11.27-5.15c-8.55,0-15.75,6.23-15.75,16.19s7.2,16.2,15.75,16.2a16.41,16.41,0,0,0,12.46-5.89l3.62,3.63a21.2,21.2,0,0,1-37.15-13.94"/></g><path id="path202" class="cls-24" d="M1165,313.4h5.21V354H1165Z"/><g id="g204"><path id="path206" class="cls-24" d="M1197.48,340.07c0-6.34-4.42-10-9.06-10s-9.06,3.68-9.06,10,4.41,10,9.06,10,9.06-3.68,9.06-10m5.21,0c0,8.44-6,14.78-14.27,14.78s-14.27-6.34-14.27-14.78,5.94-14.78,14.27-14.78,14.27,6.35,14.27,14.78"/></g><g id="g208"><path id="path210" class="cls-24" d="M1226.25,354V350.1H1226a10.59,10.59,0,0,1-8.78,4.75c-7.13,0-10.59-4.81-10.59-11.66v-17h5.21v16.14c0,5.78,2.89,7.76,6.86,7.76,4.53,0,7.3-4.36,7.3-8.61V326.2h5.21V354Z"/></g><g id="g212"><path id="path214" class="cls-24" d="M1258.3,340.07c0-6.34-4.19-10-8.83-10s-8.84,3.79-8.84,10,4.19,10,8.84,10,8.83-3.68,8.83-10m-22.88,0c0-8.49,6.17-14.78,13.2-14.78a11.09,11.09,0,0,1,9.45,4.76h.23l-.23-3.85V313.4h5.22V354h-5V350.1h-.23a11.08,11.08,0,0,1-9.45,4.75c-7,0-13.2-6.28-13.2-14.78"/></g><g id="g216"><path id="path218" class="cls-24" d="M1291.43,332.54a7.08,7.08,0,1,0,0-14.16h-8.72v14.16ZM1277.5,354V313.4h13.82c6.74,0,12.68,5,12.68,12.06s-5.94,12.07-12.68,12.07h-8.61V354Z"/></g><path id="path220" class="cls-24" d="M1307.68,313.4h5.21V354h-5.21Z"/><g id="g222"><path id="path224" class="cls-24" d="M1337.08,342s-2.21-1.81-6.63-1.81c-5.5,0-7.65,2.94-7.65,5.49,0,2.94,3.06,4.42,5.78,4.42,4.13,0,8.5-3.57,8.5-8.1m-19.71,3.57c0-6.29,5.66-9.69,12.17-9.69a16,16,0,0,1,7.54,1.7v-.79c0-4.19-3.35-6.74-7.26-6.74-2.88,0-5.66,1.42-6.62,4l-4.76-2c1-2.55,4.31-6.74,11.27-6.74,6.8,0,12.35,4.08,12.35,11.89V354h-5V350.1h-.23a10.45,10.45,0,0,1-9.12,4.75c-5.66,0-10.36-3.51-10.36-9.28"/></g><g id="g226"><path id="path228" class="cls-24" d="M1349.59,345.51V331h-4.87V326.2h4.87v-8.5h5.21v8.5h6.8V331h-6.8v14.16c0,3.12,1.3,4.53,3.74,4.53a5.27,5.27,0,0,0,2.38-.45l1.81,4.48a10.12,10.12,0,0,1-4.19.73c-5.84,0-9-3.23-9-8.89"/></g><g id="g230"><path id="path232" class="cls-24" d="M1383.45,313.91l-1.81,4.47a5.09,5.09,0,0,0-2.38-.45c-2.6,0-4.64,1.53-4.64,4.76v3.51h7.25V331h-7.25v23h-5.21V331h-5.21V326.2h5.21v-3.68c0-5.67,4-9.35,9.85-9.35a10,10,0,0,1,4.19.74"/></g><g id="g234"><path id="path236" class="cls-24" d="M1406.62,340.07c0-6.34-4.42-10-9.06-10s-9.07,3.68-9.07,10,4.42,10,9.07,10,9.06-3.68,9.06-10m5.21,0c0,8.44-5.95,14.78-14.27,14.78s-14.28-6.34-14.28-14.78,6-14.78,14.28-14.78,14.27,6.35,14.27,14.78"/></g><g id="g238"><path id="path240" class="cls-24" d="M1416,354V326.2h5v4.53h.23c1.13-3.17,5.15-5.21,8-5.21a9.56,9.56,0,0,1,3.91.68l-2,4.87a7.8,7.8,0,0,0-2.77-.4c-3.57,0-7.19,3-7.19,8.1V354Z"/></g><g id="g242"><path id="path244" class="cls-24" d="M1436,326.2h5v3.85h.23a10.7,10.7,0,0,1,8.55-4.76c4.47,0,7.36,2,8.78,5.33a11.28,11.28,0,0,1,9.68-5.33c6.8,0,9.91,4.82,9.91,11.67v17h-5.21v-16.2c0-5.78-2.21-7.7-6.17-7.7-4.25,0-7.08,4.3-7.08,8.55V354h-5.21v-16.2c0-5.78-2.21-7.7-6.17-7.7-4.25,0-7.08,4.3-7.08,8.55V354H1436Z"/></g><g id="g192"><g id="g246"><g id="g248"><g class="cls-25"><g id="g250"><g id="g256"><path id="path258" class="cls-24" d="M927.4,331.63c0-12.79,10.76-23.22,23.56-23.22a22.13,22.13,0,0,1,15.91,6.4l-4.47,4.48A16.17,16.17,0,0,0,951,314.76a16.88,16.88,0,0,0,0,33.75,15.53,15.53,0,0,0,11.72-4.64c1.82-1.81,3-4.42,3.46-8H951v-6.34h21.35a20.37,20.37,0,0,1,.34,4c0,4.76-1.3,10.65-5.49,14.84s-9.29,6.51-16.2,6.51c-12.8,0-23.56-10.42-23.56-23.22"/></g><g id="g260"><path id="path262" class="cls-24" d="M989.91,349c-4.53,0-8.44-3.73-8.44-9.06s3.91-9.06,8.44-9.06,8.43,3.68,8.43,9.06-3.9,9.06-8.43,9.06m0-24a15,15,0,1,0,15,14.95,14.74,14.74,0,0,0-15-14.95"/></g><g id="g264"><path id="path266" class="cls-24" d="M1022.65,349c-4.53,0-8.44-3.73-8.44-9.06s3.91-9.06,8.44-9.06,8.43,3.68,8.43,9.06-3.9,9.06-8.43,9.06m0-24a15,15,0,1,0,15,14.95,14.74,14.74,0,0,0-15-14.95"/></g><g id="g268"><path id="path270" class="cls-24" d="M1055.3,349c-4.53,0-8.32-3.79-8.32-9s3.79-9.12,8.32-9.12,8,3.85,8,9.12-3.52,9-8,9m7.53-23.1v2.43h-.22a10.41,10.41,0,0,0-7.88-3.34c-7.47,0-14.32,6.57-14.32,15s6.85,14.89,14.32,14.89a10.22,10.22,0,0,0,7.88-3.39h.22v2.15c0,5.72-3.06,8.78-8,8.78a8.26,8.26,0,0,1-7.53-5.33l-5.73,2.38a14.26,14.26,0,0,0,13.26,8.84c7.7,0,14.21-4.53,14.21-15.58V325.86Z"/></g><path id="path272" class="cls-24" d="M1080.16,354h-6.57V310h6.57Z"/><g id="g274"><path id="path276" class="cls-24" d="M1097.66,330.73c2.61,0,4.82,1.3,5.55,3.17l-13.36,5.55a8.19,8.19,0,0,1,7.81-8.72m.51,18.24a7.6,7.6,0,0,1-7.25-4.54l20-8.26-.68-1.7c-1.25-3.34-5-9.52-12.8-9.52s-14.11,6.06-14.11,14.95a14.63,14.63,0,0,0,14.84,15,14.87,14.87,0,0,0,12.46-6.62l-5.09-3.4a8.56,8.56,0,0,1-7.37,4.14"/></g></g></g></g></g></g></g></g></g></g><line class="cls-26" x1="755.5" y1="19" x2="755.5" y2="369"/></svg>